<?xml version="1.0" encoding="UTF-8" standalone="no"?>
<svg width="805px" height="1612px" viewBox="0 0 805 1612" version="1.1" xmlns="http://www.w3.org/2000/svg" xmlns:xlink="http://www.w3.org/1999/xlink" xmlns:sketch="http://www.bohemiancoding.com/sketch/ns">
    <!-- Generator: Sketch 3.4.4 (17249) - http://www.bohemiancoding.com/sketch -->
    <title>Body</title>
    <desc>Created with Sketch.</desc>
    <defs></defs>
    <g id="Page-1" stroke="none" stroke-width="1" fill="none" fill-rule="evenodd" sketch:type="MSPage">
        <g id="Body" sketch:type="MSLayerGroup" transform="translate(400.000000, 805.999167) scale(-1, 1) translate(-400.000000, -805.999167) translate(0.000000, 5.000000)">
            <rect id="Button---Power/Lock" fill="#000000" x="787.579822" y="417.575147" width="12.4201782" height="108.662678" rx="4.66"></rect>
            <rect id="Button---Volume" fill="#000000" x="787.579822" y="634.900503" width="12.4201782" height="237.505567" rx="4.66"></rect>
            <g id="Base---Screen-Cutout" stroke-width="10" stroke="#9B9B9B" stroke-linejoin="round">
                <path d="M0,151.456107 C0,67.809209 67.8038876,0 151.447495,0 C151.447495,0 139.754693,0 159.181805,0 L311.367394,0 L524.372465,0 L637.226554,0 C720.87271,0 788.681317,67.8126351 788.681317,151.456107 L788.681317,1450.54223 C788.681317,1534.18913 720.884395,1601.99833 637.228246,1601.99833 L151.453071,1601.99833 C67.8078497,1601.99833 0,1534.1857 0,1450.54223 L0,151.456107 Z M398.334721,532.889259 C436.962464,532.889259 468.276436,500.382373 468.276436,460.283097 C468.276436,420.183822 436.962464,387.676936 398.334721,387.676936 C359.706978,387.676936 328.393006,420.183822 328.393006,460.283097 C328.393006,500.382373 359.706978,532.889259 398.334721,532.889259 Z M526.894255,191.88176 C526.894255,169.785774 544.806353,151.873439 566.89714,151.873439 L640.097032,151.873439 C662.190015,151.873439 680.099917,169.791293 680.099917,191.88176 L680.099917,231.765201 C680.099917,253.861187 662.187818,271.773522 640.097032,271.773522 L566.89714,271.773522 C544.804156,271.773522 526.894255,253.855668 526.894255,231.765201 L526.894255,191.88176 Z M398.334721,289.092423 C441.00918,289.092423 475.603664,254.497939 475.603664,211.82348 C475.603664,169.149022 441.00918,134.554538 398.334721,134.554538 C355.660262,134.554538 321.065779,169.149022 321.065779,211.82348 C321.065779,254.497939 355.660262,289.092423 398.334721,289.092423 Z"></path>
            </g>
        </g>
    </g>
</svg>