<?xml version="1.0" encoding="utf-8"?>
<!-- Generator: Adobe Illustrator 19.0.0, SVG Export Plug-In . SVG Version: 6.00 Build 0)  -->
<svg version="1.1" id="Layer_1" xmlns="http://www.w3.org/2000/svg" xmlns:xlink="http://www.w3.org/1999/xlink" x="0px" y="0px"
	 viewBox="-12.1 40.6 223.2 424.8" style="enable-background:new -12.1 40.6 223.2 424.8;" xml:space="preserve">
<style type="text/css">
	.st0{fill:#231F20;}
	.st1{fill:none;stroke:#231F20;stroke-miterlimit:10;}
</style>
<g id="XMLID_1_">
	<path id="XMLID_147_" class="st0" d="M164.5,59.4c16.6,0,29.1,11.2,29.1,26.1V423c0,14.4-12,26.1-26.8,26.1H32.3
		c-14.8,0-26.8-11.7-26.8-26.1V85.5C5.5,71.6,17,59.4,30,59.4H164.5 M164.5,58.4H30c-13.1,0-25.5,12.1-25.5,27.1V423
		c0,15,12.4,27.1,27.8,27.1h134.5c15.4,0,27.8-12.1,27.8-27.1V85.5C194.5,70.6,182.1,58.4,164.5,58.4L164.5,58.4z"/>
</g>
<circle id="XMLID_2_" class="st1" cx="34.7" cy="73" r="5.2"/>
<circle id="XMLID_5_" class="st1" cx="54.9" cy="73" r="2.9"/>
<circle id="XMLID_139_" class="st0" cx="45.6" cy="73" r="1.3"/>
</svg>
