<?xml version="1.0" encoding="utf-8"?>
<!-- Generator: Adobe Illustrator 19.0.0, SVG Export Plug-In . SVG Version: 6.00 Build 0)  -->
<svg version="1.1" id="Layer_1" xmlns="http://www.w3.org/2000/svg" xmlns:xlink="http://www.w3.org/1999/xlink" x="0px" y="0px"
	 viewBox="-39.3 62.2 201.6 381.6" style="enable-background:new -39.3 62.2 201.6 381.6;" xml:space="preserve">
<style type="text/css">
	.st0{fill:#231F20;}
	.st1{fill:none;stroke:#231F20;stroke-miterlimit:10;}
</style>
<g id="XMLID_1_">
	<path id="XMLID_82_" class="st0" d="M119.8,77.8c14.6,0,25.5,10.1,25.5,23.4v303.9c0,12.9-10.6,23.4-23.5,23.4H3.2
		c-13,0-23.5-10.5-23.5-23.4V101.3c0-12.5,10.1-23.4,21.5-23.4L119.8,77.8 M119.8,76.8H1.2c-11.5,0-22.5,10.9-22.5,24.4v303.9
		c0,13.5,11,24.4,24.5,24.4h118.7c13.6,0,24.5-10.9,24.5-24.4V101.3C146.4,87.8,135.4,76.8,119.8,76.8L119.8,76.8z"/>
</g>
<circle id="XMLID_2_" class="st1" cx="1.3" cy="95.5" r="6"/>
<circle id="XMLID_5_" class="st1" cx="27.3" cy="95.5" r="3.4"/>
<path id="XMLID_3_" class="st0" d="M17.2,97.5h-1.8c-1.1,0-2-0.9-2-2l0,0c0-1.1,0.9-2,2-2h1.8c1.1,0,2,0.9,2,2l0,0
	C19.2,96.6,18.3,97.5,17.2,97.5z"/>
</svg>
