<?xml version="1.0" encoding="utf-8"?>
<!-- Generator: Adobe Illustrator 19.0.0, SVG Export Plug-In . SVG Version: 6.00 Build 0)  -->
<svg version="1.1" id="Layer_1" xmlns="http://www.w3.org/2000/svg" xmlns:xlink="http://www.w3.org/1999/xlink" x="0px" y="0px"
	 viewBox="0 0 205 374" style="enable-background:new 0 0 205 374;" xml:space="preserve">
<style type="text/css">
	.st0{fill:#231F20;}
	.st1{fill:none;stroke:#231F20;stroke-miterlimit:10;}
</style>
<g id="XMLID_1_">
	<path id="XMLID_14_" class="st0" d="M160.3,12.8c14.4,0,25.3,10,25.3,23.3v302.3c0,12.9-10.5,23.3-23.3,23.3H44.7
		c-12.8,0-23.3-10.5-23.3-23.3V36.1c0-12.4,10-23.3,21.3-23.3H160.3 M160.3,11.8H42.8c-11.4,0-22.3,10.9-22.3,24.3v302.3
		c0,13.4,10.9,24.3,24.3,24.3h117.5c13.4,0,24.3-10.9,24.3-24.3V36.1C186.6,22.7,175.7,11.8,160.3,11.8L160.3,11.8z"/>
</g>
<circle id="XMLID_2_" class="st1" cx="43.3" cy="29.5" r="6"/>
<circle id="XMLID_5_" class="st1" cx="69.3" cy="29.5" r="3.4"/>
<path id="XMLID_3_" class="st0" d="M59.2,31.5h-1.8c-1.1,0-2-0.9-2-2v0c0-1.1,0.9-2,2-2h1.8c1.1,0,2,0.9,2,2v0
	C61.2,30.6,60.3,31.5,59.2,31.5z"/>
</svg>
