<?xml version="1.0" encoding="utf-8"?>
<!-- Generator: Adobe Illustrator 19.0.0, SVG Export Plug-In . SVG Version: 6.00 Build 0)  -->
<svg version="1.1" id="Layer_1" xmlns="http://www.w3.org/2000/svg" xmlns:xlink="http://www.w3.org/1999/xlink" x="0px" y="0px"
	 viewBox="-26.5 11.8 252 482.4" style="enable-background:new -26.5 11.8 252 482.4;" xml:space="preserve">
<style type="text/css">
	.st0{fill:none;stroke:#231F20;stroke-miterlimit:10;}
	.st1{fill:#231F20;}
</style>
<circle id="XMLID_2_" class="st0" cx="21.1" cy="48" r="6.6"/>
<circle id="XMLID_5_" class="st0" cx="46.5" cy="48" r="3.7"/>
<circle id="XMLID_139_" class="st1" cx="34.8" cy="48" r="1.6"/>
<g>
	<path d="M174.8,30.1c19.3,0,33.9,12.9,33.9,30v385.8c0,16.6-14,30-31.2,30H21.6c-17.2,0-31.2-13.5-31.2-30V60.1
		c0-16,13.4-30,28.6-30H174.8 M174.8,29.1H18.9c-15.2,0-29.6,13.9-29.6,31v385.8c0,17.1,14.4,31,32.2,31h155.9
		c17.8,0,32.2-13.9,32.2-31V60.1C209.7,43,195.2,29.1,174.8,29.1L174.8,29.1z"/>
</g>
</svg>
