<?xml version="1.0" encoding="utf-8"?>
<!-- Generator: Adobe Illustrator 19.0.0, SVG Export Plug-In . SVG Version: 6.00 Build 0)  -->
<svg version="1.1" id="Layer_1" xmlns="http://www.w3.org/2000/svg" xmlns:xlink="http://www.w3.org/1999/xlink" x="0px" y="0px"
	 viewBox="0 0 252 468" style="enable-background:new 0 0 252 468;" xml:space="preserve">
<style type="text/css">
	.st0{fill:none;stroke:#231F20;stroke-miterlimit:10;}
</style>
<path id="XMLID_6_" class="st0" d="M88.2,452.9l-8.2-0.1c-11.9-0.2-16.8-0.3-24.4-0.8c-0.5,0-12.8-0.9-17.5-2.9
	c-3.8-1.6-7.2-3.8-10.1-6.7c-2.9-2.9-5.2-6.2-6.8-10c-1.7-3.9-2.5-8-2.5-12.2V47.9c0-4.2,0.8-8.4,2.5-12.2c1.6-3.7,3.9-7.1,6.8-10
	c2.9-2.9,6.3-5.2,10.1-6.7c4.8-2,17-2.8,17.5-2.9c7.6-0.5,12.6-0.6,24.4-0.8l8.1-0.1l75.6,0l8.1,0.1c11.9,0.2,16.8,0.3,24.4,0.8
	c0.5,0,12.8,0.9,17.5,2.9c3.8,1.6,7.2,3.9,10.1,6.7c2.9,2.9,5.2,6.2,6.8,10c1.7,3.9,2.5,8,2.5,12.2v372.3c0,4.2-0.8,8.4-2.5,12.2
	c-1.6,3.7-3.9,7.1-6.8,10c-2.9,2.9-6.3,5.2-10.1,6.7c-4.8,2-17,2.8-17.5,2.9c-7.6,0.5-12.5,0.6-24.4,0.8l-8.1,0.1H88.2z"/>
<path id="XMLID_28_" class="st0" d="M129.6,74.7h-7.2c-5.9,0-10.8-4.9-10.8-10.8v-7.2c0-5.9,4.9-10.8,10.8-10.8h7.2
	c5.9,0,10.8,4.9,10.8,10.8v7.2C140.4,69.8,135.5,74.7,129.6,74.7z"/>
<path id="XMLID_29_" class="st0" d="M154.7,71.8h-0.5c-2.1,0-3.8-1.7-3.8-3.8V52.6c0-2.1,1.7-3.8,3.8-3.8h0.5c2.1,0,3.8,1.7,3.8,3.8
	v15.3C158.5,70,156.8,71.8,154.7,71.8z"/>
</svg>
