<?xml version="1.0" encoding="utf-8"?>
<!-- Generator: Adobe Illustrator 19.0.0, SVG Export Plug-In . SVG Version: 6.00 Build 0)  -->
<svg version="1.1" id="Layer_1" xmlns="http://www.w3.org/2000/svg" xmlns:xlink="http://www.w3.org/1999/xlink" x="0px" y="0px"
	 viewBox="0 0 216 432" style="enable-background:new 0 0 216 432;" xml:space="preserve">
<style type="text/css">
	.st0{fill:none;stroke:#231F20;stroke-miterlimit:10;}
</style>
<path id="XMLID_6_" class="st0" d="M72.8,419.4l-7.6-0.1c-11.1-0.2-15.7-0.3-22.8-0.7c-0.5,0-11.9-0.8-16.4-2.7
	c-3.5-1.5-6.7-3.6-9.4-6.3c-2.7-2.7-4.9-5.8-6.3-9.3c-1.5-3.6-2.3-7.4-2.3-11.4V43c0-3.9,0.8-7.8,2.3-11.4c1.5-3.5,3.6-6.6,6.3-9.3
	c2.7-2.7,5.9-4.8,9.4-6.3c4.5-1.9,15.9-2.6,16.4-2.7c7.1-0.5,11.7-0.5,22.8-0.7l7.5-0.1l70.5,0l7.6,0.1c11.1,0.2,15.7,0.3,22.8,0.7
	c0.5,0,11.9,0.8,16.4,2.7c3.5,1.5,6.7,3.6,9.4,6.3c2.7,2.7,4.9,5.8,6.3,9.3c1.5,3.6,2.3,7.4,2.3,11.4V389c0,3.9-0.8,7.8-2.3,11.4
	c-1.5,3.5-3.6,6.6-6.3,9.3c-2.7,2.7-5.9,4.8-9.4,6.3c-4.5,1.9-15.9,2.6-16.4,2.7c-7.1,0.5-11.7,0.5-22.8,0.7l-7.6,0.1H72.8z"/>
<path id="XMLID_28_" class="st0" d="M111.6,68.7h-7.2c-5.9,0-10.8-4.9-10.8-10.8v-7.2c0-5.9,4.9-10.8,10.8-10.8h7.2
	c5.9,0,10.8,4.9,10.8,10.8v7.2C122.4,63.8,117.5,68.7,111.6,68.7z"/>
<path id="XMLID_29_" class="st0" d="M136.7,65.8h-0.5c-2.1,0-3.8-1.7-3.8-3.8V46.6c0-2.1,1.7-3.8,3.8-3.8h0.5c2.1,0,3.8,1.7,3.8,3.8
	v15.3C140.5,64,138.8,65.8,136.7,65.8z"/>
</svg>
