<?xml version="1.0" encoding="utf-8"?>
<!-- Generator: Adobe Illustrator 19.0.0, SVG Export Plug-In . SVG Version: 6.00 Build 0)  -->
<svg version="1.1" id="Layer_1" xmlns="http://www.w3.org/2000/svg" xmlns:xlink="http://www.w3.org/1999/xlink" x="0px" y="0px"
	 viewBox="0 0 216 432" style="enable-background:new 0 0 216 432;" xml:space="preserve">
<style type="text/css">
	.st0{fill:none;stroke:#231F20;stroke-miterlimit:10;}
</style>
<path id="XMLID_6_" class="st0" d="M73.3,418l-7.5-0.1c-10.9-0.2-15.4-0.3-22.4-0.7c-0.5,0-11.7-0.8-16.1-2.6
	c-3.5-1.5-6.6-3.6-9.3-6.2c-2.7-2.7-4.8-5.8-6.3-9.2c-1.5-3.6-2.3-7.4-2.3-11.3V44.3c0-3.9,0.8-7.7,2.3-11.3
	c1.5-3.5,3.6-6.6,6.3-9.2c2.7-2.7,5.8-4.8,9.3-6.2c4.4-1.9,15.7-2.6,16.1-2.6c7-0.5,11.5-0.5,22.5-0.7l7.4-0.1l69.5,0l7.5,0.1
	c10.9,0.2,15.4,0.3,22.5,0.7c0.5,0,11.7,0.8,16.1,2.6c3.5,1.5,6.6,3.6,9.3,6.2c2.7,2.7,4.8,5.8,6.3,9.2c1.5,3.6,2.3,7.4,2.3,11.3
	v343.5c0,3.9-0.8,7.7-2.3,11.3c-1.5,3.5-3.6,6.6-6.3,9.2c-2.7,2.7-5.8,4.8-9.3,6.2c-4.4,1.8-15.7,2.6-16.1,2.6
	c-7,0.5-11.5,0.5-22.4,0.7l-7.5,0.1H73.3z"/>
<path id="XMLID_28_" class="st0" d="M111.6,66.7h-7.2c-5.9,0-10.8-4.9-10.8-10.8v-7.2c0-5.9,4.9-10.8,10.8-10.8h7.2
	c5.9,0,10.8,4.9,10.8,10.8v7.2C122.4,61.8,117.5,66.7,111.6,66.7z"/>
<path id="XMLID_29_" class="st0" d="M136.7,63.8h-0.5c-2.1,0-3.8-1.7-3.8-3.8V44.6c0-2.1,1.7-3.8,3.8-3.8h0.5c2.1,0,3.8,1.7,3.8,3.8
	v15.3C140.5,62,138.8,63.8,136.7,63.8z"/>
</svg>
