<?xml version="1.0" encoding="utf-8"?>
<!-- Generator: Adobe Illustrator 19.0.0, SVG Export Plug-In . SVG Version: 6.00 Build 0)  -->
<svg version="1.1" id="Layer_1" xmlns="http://www.w3.org/2000/svg" xmlns:xlink="http://www.w3.org/1999/xlink" x="0px" y="0px"
	 viewBox="0 0 252 468" style="enable-background:new 0 0 252 468;" xml:space="preserve">
<style type="text/css">
	.st0{fill:none;stroke:#231F20;stroke-miterlimit:10;}
</style>
<path id="XMLID_6_" class="st0" d="M89.4,442.1l-7.9-0.1c-11.5-0.2-16.3-0.3-23.7-0.7c-0.5,0-12.4-0.8-17-2.7
	c-3.7-1.5-7-3.7-9.8-6.4c-2.8-2.7-5-5.9-6.6-9.5C22.8,418.9,22,415,22,411V57c0-4,0.8-7.9,2.4-11.6c1.6-3.6,3.8-6.8,6.6-9.5
	c2.8-2.7,6.1-4.9,9.8-6.4c4.6-1.9,16.5-2.7,17-2.7c7.4-0.5,12.2-0.6,23.7-0.7l7.8-0.1l73.3,0l7.9,0.1c11.5,0.2,16.3,0.3,23.7,0.7
	c0.5,0,12.4,0.8,17,2.7c3.7,1.5,7,3.7,9.8,6.4c2.8,2.7,5,5.9,6.6,9.5c1.6,3.7,2.4,7.6,2.4,11.6V411c0,4-0.8,7.9-2.4,11.6
	c-1.6,3.6-3.8,6.8-6.6,9.5c-2.8,2.7-6.1,4.9-9.8,6.4c-4.6,1.9-16.5,2.7-17,2.7c-7.4,0.5-12.2,0.6-23.7,0.7l-7.9,0.1H89.4z"/>
<path id="XMLID_28_" class="st0" d="M129.6,82.7h-7.2c-5.9,0-10.8-4.9-10.8-10.8v-7.2c0-5.9,4.9-10.8,10.8-10.8h7.2
	c5.9,0,10.8,4.9,10.8,10.8v7.2C140.4,77.8,135.5,82.7,129.6,82.7z"/>
<path id="XMLID_29_" class="st0" d="M154.7,79.8h-0.5c-2.1,0-3.8-1.7-3.8-3.8V60.6c0-2.1,1.7-3.8,3.8-3.8h0.5c2.1,0,3.8,1.7,3.8,3.8
	v15.3C158.5,78,156.8,79.8,154.7,79.8z"/>
</svg>
