<?xml version="1.0" encoding="utf-8"?>
<!-- Generator: Adobe Illustrator 19.0.0, SVG Export Plug-In . SVG Version: 6.00 Build 0)  -->
<svg version="1.1" id="Layer_1" xmlns="http://www.w3.org/2000/svg" xmlns:xlink="http://www.w3.org/1999/xlink" x="0px" y="0px"
	 viewBox="0 0 252 468" style="enable-background:new 0 0 252 468;" xml:space="preserve">
<style type="text/css">
	.st0{fill:none;stroke:#231F20;stroke-miterlimit:10;}
</style>
<path id="XMLID_6_" class="st0" d="M89.8,447.8l-7.8-0.1c-11.4-0.2-16.1-0.3-23.4-0.8c-0.5,0-12.2-0.8-16.8-2.8
	c-3.6-1.5-6.9-3.8-9.7-6.6c-2.8-2.8-5-6.1-6.5-9.8c-1.6-3.8-2.4-7.8-2.4-12V52.2c0-4.1,0.8-8.2,2.4-12c1.5-3.7,3.7-6.9,6.5-9.8
	c2.8-2.8,6.1-5,9.7-6.6c4.6-2,16.3-2.8,16.8-2.8c7.3-0.5,12-0.6,23.4-0.8l7.7-0.1l72.6,0l7.8,0.1c11.4,0.2,16.1,0.3,23.4,0.8
	c0.5,0,12.2,0.8,16.8,2.8c3.6,1.5,6.9,3.8,9.7,6.6c2.8,2.8,5,6.1,6.5,9.8c1.6,3.8,2.4,7.8,2.4,12v363.7c0,4.1-0.8,8.2-2.4,12
	c-1.5,3.7-3.7,6.9-6.5,9.8c-2.8,2.8-6.1,5-9.7,6.6c-4.6,2-16.3,2.8-16.8,2.8c-7.3,0.5-12,0.6-23.4,0.8l-7.8,0.1H89.8z"/>
<path id="XMLID_28_" class="st0" d="M129.6,80.7h-7.2c-5.9,0-10.8-4.9-10.8-10.8v-7.2c0-5.9,4.9-10.8,10.8-10.8h7.2
	c5.9,0,10.8,4.9,10.8,10.8v7.2C140.4,75.8,135.5,80.7,129.6,80.7z"/>
<path id="XMLID_29_" class="st0" d="M154.7,77.8h-0.5c-2.1,0-3.8-1.7-3.8-3.8V58.6c0-2.1,1.7-3.8,3.8-3.8h0.5c2.1,0,3.8,1.7,3.8,3.8
	v15.3C158.5,76,156.8,77.8,154.7,77.8z"/>
</svg>
